<svg width="30" height="20" viewBox="0 0 30 20" fill="none" xmlns="http://www.w3.org/2000/svg">
<path d="M27.3465 6.09965L29.7594 3.47489H24.4085C21.7298 1.64535 18.4946 0.579834 14.9959 0.579834C11.5016 0.579834 8.27549 1.64765 5.60115 3.47489H0.236877L2.6498 6.09965C1.17079 7.44886 0.243604 9.39232 0.243604 11.5502C0.243604 15.6225 3.54577 18.924 7.61869 18.924C9.5535 18.924 11.3162 18.178 12.6322 16.9583L14.996 19.5317L17.3597 16.9605C18.6757 18.1802 20.4362 18.924 22.371 18.924C26.4439 18.924 29.7505 15.6225 29.7505 11.5502C29.7527 9.39008 28.8255 7.44667 27.3465 6.09965V6.09965ZM7.62087 16.5405C4.86386 16.5405 2.62973 14.3068 2.62973 11.5502C2.62973 8.79363 4.86391 6.55981 7.62087 6.55981C10.3778 6.55981 12.612 8.79363 12.612 11.5502C12.612 14.3068 10.3778 16.5405 7.62087 16.5405V16.5405ZM14.9981 11.405C14.9981 8.12124 12.6098 5.30218 9.45737 4.09813C11.162 3.3855 13.0321 2.99013 14.9959 2.99013C16.9597 2.99013 18.8319 3.3855 20.5367 4.09813C17.3865 5.30442 14.9981 8.1213 14.9981 11.405ZM22.3732 16.5405C19.6162 16.5405 17.382 14.3068 17.382 11.5502C17.382 8.79363 19.6162 6.55981 22.3732 6.55981C25.1302 6.55981 27.3644 8.79363 27.3644 11.5502C27.3644 14.3068 25.1302 16.5405 22.3732 16.5405V16.5405ZM22.3732 8.93211C20.9277 8.93211 19.757 10.1026 19.757 11.548C19.757 12.9932 20.9277 14.1638 22.3732 14.1638C23.8187 14.1638 24.9894 12.9932 24.9894 11.548C24.9894 10.1049 23.8187 8.93211 22.3732 8.93211ZM10.2371 11.5502C10.2371 12.9955 9.06636 14.166 7.62087 14.166C6.17538 14.166 5.00465 12.9955 5.00465 11.5502C5.00465 10.1049 6.17538 8.93435 7.62087 8.93435C9.06636 8.93211 10.2371 10.1049 10.2371 11.5502Z" fill="black"/>
</svg>
